{
   "accessors" : [
      {
         "bufferView" : 0,
         "byteOffset" : 0,
         "componentType" : 5123,
         "count" : 1050,
         "max" : [ 689 ],
         "min" : [ 0 ],
         "name" : "buffer-0-group-0-mesh-0-indices",
         "type" : "SCALAR"
      },
      {
         "bufferView" : 2,
         "byteOffset" : 0,
         "componentType" : 5126,
         "count" : 690,
         "max" : [ 9.170590400695801, 5.795849800109863, 12.34119987487793 ],
         "min" : [ -10.11880016326904, -0.3799999952316284, -12.12609958648682 ],
         "name" : "buffer-0-group-0-mesh-0-position",
         "type" : "VEC3"
      },
      {
         "bufferView" : 2,
         "byteOffset" : 8280,
         "componentType" : 5126,
         "count" : 690,
         "max" : [ 0.9723309874534607, 1, 0.9806190133094788 ],
         "min" : [ -0.9526680111885071, -0.9999949932098389, -0.9997810125350952 ],
         "name" : "buffer-0-group-0-mesh-0-normal",
         "type" : "VEC3"
      },
      {
         "bufferView" : 1,
         "byteOffset" : 0,
         "componentType" : 5126,
         "count" : 690,
         "max" : [ 0.2906880080699921, 30.97450065612793 ],
         "min" : [ -0.3372940123081207, -25.16209983825684 ],
         "name" : "buffer-0-group-0-mesh-0-texcoord",
         "type" : "VEC2"
      },
      {
         "bufferView" : 0,
         "byteOffset" : 2100,
         "componentType" : 5123,
         "count" : 36,
         "max" : [ 23 ],
         "min" : [ 0 ],
         "name" : "buffer-0-group-1-mesh-0-indices",
         "type" : "SCALAR"
      },
      {
         "bufferView" : 2,
         "byteOffset" : 16560,
         "componentType" : 5126,
         "count" : 24,
         "max" : [ 0, 1.488669991493225, 12.34119987487793 ],
         "min" : [ -10.11880016326904, -0.2199999988079071, 0 ],
         "name" : "buffer-0-group-1-mesh-0-position",
         "type" : "VEC3"
      },
      {
         "bufferView" : 2,
         "byteOffset" : 16848,
         "componentType" : 5126,
         "count" : 24,
         "max" : [ 0.832921028137207, 7.192730090562437e-16, 0.832921028137207 ],
         "min" : [ -0.832921028137207, -2.259569971688397e-16, -0.5533919930458069 ],
         "name" : "buffer-0-group-1-mesh-0-normal",
         "type" : "VEC3"
      },
      {
         "bufferView" : 1,
         "byteOffset" : 5520,
         "componentType" : 5126,
         "count" : 24,
         "max" : [ 12, 2.775559877668606e-17 ],
         "min" : [ -12, -1 ],
         "name" : "buffer-0-group-1-mesh-0-texcoord",
         "type" : "VEC2"
      },
      {
         "bufferView" : 0,
         "byteOffset" : 2172,
         "componentType" : 5123,
         "count" : 6,
         "max" : [ 3 ],
         "min" : [ 0 ],
         "name" : "buffer-0-group-2-mesh-0-indices",
         "type" : "SCALAR"
      },
      {
         "bufferView" : 2,
         "byteOffset" : 17136,
         "componentType" : 5126,
         "count" : 4,
         "max" : [ 6.970560073852539, 1.872720003128052, 9.73976993560791 ],
         "min" : [ -2.458970069885254, 0, -4.985549926757812 ],
         "name" : "buffer-0-group-2-mesh-0-position",
         "type" : "VEC3"
      },
      {
         "bufferView" : 2,
         "byteOffset" : 17184,
         "componentType" : 5126,
         "count" : 4,
         "max" : [ 0.8422600030899048, 0.004745949991047382, 0.5390509963035583 ],
         "min" : [ 0, 0, 0 ],
         "name" : "buffer-0-group-2-mesh-0-normal",
         "type" : "VEC3"
      },
      {
         "bufferView" : 1,
         "byteOffset" : 5712,
         "componentType" : 5126,
         "count" : 4,
         "max" : [ 1, 0 ],
         "min" : [ 0, -1 ],
         "name" : "buffer-0-group-2-mesh-0-texcoord",
         "type" : "VEC2"
      },
      {
         "bufferView" : 0,
         "byteOffset" : 2184,
         "componentType" : 5123,
         "count" : 6,
         "max" : [ 3 ],
         "min" : [ 0 ],
         "name" : "buffer-0-group-3-mesh-0-indices",
         "type" : "SCALAR"
      },
      {
         "bufferView" : 2,
         "byteOffset" : 17232,
         "componentType" : 5126,
         "count" : 4,
         "max" : [ 1.49891996383667, 1.865820050239563, 5.832039833068848 ],
         "min" : [ -7.930600166320801, 0, -8.893280029296875 ],
         "name" : "buffer-0-group-3-mesh-0-position",
         "type" : "VEC3"
      },
      {
         "bufferView" : 2,
         "byteOffset" : 17280,
         "componentType" : 5126,
         "count" : 4,
         "max" : [ 0.8422600030899048, 0.004745949991047382, 0.5390509963035583 ],
         "min" : [ 0, 0, 0 ],
         "name" : "buffer-0-group-3-mesh-0-normal",
         "type" : "VEC3"
      },
      {
         "bufferView" : 1,
         "byteOffset" : 5744,
         "componentType" : 5126,
         "count" : 4,
         "max" : [ 1, 0 ],
         "min" : [ 0, -1 ],
         "name" : "buffer-0-group-3-mesh-0-texcoord",
         "type" : "VEC2"
      },
      {
         "bufferView" : 0,
         "byteOffset" : 2196,
         "componentType" : 5123,
         "count" : 30,
         "max" : [ 23 ],
         "min" : [ 0 ],
         "name" : "buffer-0-group-4-mesh-0-indices",
         "type" : "SCALAR"
      },
      {
         "bufferView" : 2,
         "byteOffset" : 17328,
         "componentType" : 5126,
         "count" : 24,
         "max" : [ 9.625729560852051, 0.5400000214576721, 12.91720008850098 ],
         "min" : [ -10.22649955749512, 0, -12.88249969482422 ],
         "name" : "buffer-0-group-4-mesh-0-position",
         "type" : "VEC3"
      },
      {
         "bufferView" : 2,
         "byteOffset" : 17616,
         "componentType" : 5126,
         "count" : 24,
         "max" : [ 0.03683210164308548, 0, 0.07371799647808075 ],
         "min" : [ -0.04731979966163635, -0.9999129772186279, -0.05737949907779694 ],
         "name" : "buffer-0-group-4-mesh-0-normal",
         "type" : "VEC3"
      },
      {
         "bufferView" : 1,
         "byteOffset" : 5776,
         "componentType" : 5126,
         "count" : 24,
         "max" : [ 0.3928169906139374, 0.4427730143070221 ],
         "min" : [ -0.3848919868469238, -0.127240002155304 ],
         "name" : "buffer-0-group-4-mesh-0-texcoord",
         "type" : "VEC2"
      },
      {
         "bufferView" : 0,
         "byteOffset" : 2256,
         "componentType" : 5123,
         "count" : 150,
         "max" : [ 49 ],
         "min" : [ 0 ],
         "name" : "buffer-0-group-5-mesh-0-indices",
         "type" : "SCALAR"
      },
      {
         "bufferView" : 2,
         "byteOffset" : 17904,
         "componentType" : 5126,
         "count" : 50,
         "max" : [ 3.6285400390625, 5.795849800109863, 8.007419586181641 ],
         "min" : [ -9.026169776916504, -0.3799999952316284, -11.78670024871826 ],
         "name" : "buffer-0-group-5-mesh-0-position",
         "type" : "VEC3"
      },
      {
         "bufferView" : 2,
         "byteOffset" : 18504,
         "componentType" : 5126,
         "count" : 50,
         "max" : [ 0.8425329923629761, 3.450019986610541e-16, 0.538644015789032 ],
         "min" : [ 0, 0, 0 ],
         "name" : "buffer-0-group-5-mesh-0-normal",
         "type" : "VEC3"
      },
      {
         "bufferView" : 1,
         "byteOffset" : 5968,
         "componentType" : 5126,
         "count" : 50,
         "max" : [ 1, 0 ],
         "min" : [ -5.551119755337213e-17, -1 ],
         "name" : "buffer-0-group-5-mesh-0-texcoord",
         "type" : "VEC2"
      },
      {
         "bufferView" : 0,
         "byteOffset" : 2556,
         "componentType" : 5123,
         "count" : 150,
         "max" : [ 49 ],
         "min" : [ 0 ],
         "name" : "buffer-0-group-6-mesh-0-indices",
         "type" : "SCALAR"
      },
      {
         "bufferView" : 2,
         "byteOffset" : 19104,
         "componentType" : 5126,
         "count" : 50,
         "max" : [ 3.097749948501587, 5.795849800109863, 7.668069839477539 ],
         "min" : [ -9.55696964263916, -0.3799999952316284, -12.12609958648682 ],
         "name" : "buffer-0-group-6-mesh-0-position",
         "type" : "VEC3"
      },
      {
         "bufferView" : 2,
         "byteOffset" : 19704,
         "componentType" : 5126,
         "count" : 50,
         "max" : [ 0, 0, 0 ],
         "min" : [ -0.8425329923629761, -3.450019986610541e-16, -0.538644015789032 ],
         "name" : "buffer-0-group-6-mesh-0-normal",
         "type" : "VEC3"
      },
      {
         "bufferView" : 1,
         "byteOffset" : 6368,
         "componentType" : 5126,
         "count" : 50,
         "max" : [ 1, 0 ],
         "min" : [ -1.110219980600502e-16, -1 ],
         "name" : "buffer-0-group-6-mesh-0-texcoord",
         "type" : "VEC2"
      },
      {
         "bufferView" : 0,
         "byteOffset" : 2856,
         "componentType" : 5123,
         "count" : 66,
         "max" : [ 43 ],
         "min" : [ 0 ],
         "name" : "buffer-0-group-7-mesh-0-indices",
         "type" : "SCALAR"
      },
      {
         "bufferView" : 2,
         "byteOffset" : 20304,
         "componentType" : 5126,
         "count" : 44,
         "max" : [ 9.170590400695801, 3.85804009437561, 11.82339954376221 ],
         "min" : [ -9.55696964263916, -0.3799999952316284, -12.12609958648682 ],
         "name" : "buffer-0-group-7-mesh-0-position",
         "type" : "VEC3"
      },
      {
         "bufferView" : 2,
         "byteOffset" : 20832,
         "componentType" : 5126,
         "count" : 44,
         "max" : [ 0.8425329923629761, 0.9952880144119263, 0.5472530126571655 ],
         "min" : [ -0.3498669862747192, -1, -0.3226290047168732 ],
         "name" : "buffer-0-group-7-mesh-0-normal",
         "type" : "VEC3"
      },
      {
         "bufferView" : 1,
         "byteOffset" : 6768,
         "componentType" : 5126,
         "count" : 44,
         "max" : [ 298.1480102539062, 437.7019958496094 ],
         "min" : [ -361.0469970703125, -477.4049987792969 ],
         "name" : "buffer-0-group-7-mesh-0-texcoord",
         "type" : "VEC2"
      },
      {
         "bufferView" : 0,
         "byteOffset" : 2988,
         "componentType" : 5123,
         "count" : 150,
         "max" : [ 49 ],
         "min" : [ 0 ],
         "name" : "buffer-0-group-8-mesh-0-indices",
         "type" : "SCALAR"
      },
      {
         "bufferView" : 2,
         "byteOffset" : 21360,
         "componentType" : 5126,
         "count" : 50,
         "max" : [ 9.170590400695801, 5.795849800109863, 11.82339954376221 ],
         "min" : [ -3.484119892120361, -0.3799999952316284, -7.970759868621826 ],
         "name" : "buffer-0-group-8-mesh-0-position",
         "type" : "VEC3"
      },
      {
         "bufferView" : 2,
         "byteOffset" : 21960,
         "componentType" : 5126,
         "count" : 50,
         "max" : [ 0.8425329923629761, 3.450019986610541e-16, 0.538644015789032 ],
         "min" : [ 0, 0, 0 ],
         "name" : "buffer-0-group-8-mesh-0-normal",
         "type" : "VEC3"
      },
      {
         "bufferView" : 1,
         "byteOffset" : 7120,
         "componentType" : 5126,
         "count" : 50,
         "max" : [ 1, 0 ],
         "min" : [ 0, -1 ],
         "name" : "buffer-0-group-8-mesh-0-texcoord",
         "type" : "VEC2"
      },
      {
         "bufferView" : 0,
         "byteOffset" : 3288,
         "componentType" : 5123,
         "count" : 150,
         "max" : [ 49 ],
         "min" : [ 0 ],
         "name" : "buffer-0-group-9-mesh-0-indices",
         "type" : "SCALAR"
      },
      {
         "bufferView" : 2,
         "byteOffset" : 22560,
         "componentType" : 5126,
         "count" : 50,
         "max" : [ 8.639800071716309, 5.795849800109863, 11.48410034179688 ],
         "min" : [ -4.014920234680176, -0.3799999952316284, -8.310099601745605 ],
         "name" : "buffer-0-group-9-mesh-0-position",
         "type" : "VEC3"
      },
      {
         "bufferView" : 2,
         "byteOffset" : 23160,
         "componentType" : 5126,
         "count" : 50,
         "max" : [ 0, 0, 0 ],
         "min" : [ -0.8425329923629761, -3.450019986610541e-16, -0.538644015789032 ],
         "name" : "buffer-0-group-9-mesh-0-normal",
         "type" : "VEC3"
      },
      {
         "bufferView" : 1,
         "byteOffset" : 7520,
         "componentType" : 5126,
         "count" : 50,
         "max" : [ 1, 0 ],
         "min" : [ 0, -1 ],
         "name" : "buffer-0-group-9-mesh-0-texcoord",
         "type" : "VEC2"
      }
   ],
   "asset" : {
      "generator" : "Obj2GltfConverter",
      "version" : "2.0"
   },
   "bufferViews" : [
      {
         "buffer" : 0,
         "byteLength" : 3588,
         "byteOffset" : 0,
         "byteStride" : 0,
         "name" : "buffer-0-bufferview-ushort",
         "target" : 34963
      },
      {
         "buffer" : 0,
         "byteLength" : 7920,
         "byteOffset" : 3592,
         "byteStride" : 8,
         "name" : "buffer-0-bufferview-vec2",
         "target" : 34962
      },
      {
         "buffer" : 0,
         "byteLength" : 23760,
         "byteOffset" : 11520,
         "byteStride" : 12,
         "name" : "buffer-0-bufferview-vec3",
         "target" : 34962
      },
      {
         "buffer" : 0,
         "byteLength" : 1,
         "byteOffset" : 0,
         "name" : "buffer-0-bufferview-vec4"
      }
   ],
   "buffers" : [
      {
         "byteLength" : 35280,
         "name" : "buffer-0",
         "uri" : "puente_papelera.bin"
      }
   ],
   "images" : [
      {
         "mimeType" : "image/jpeg",
         "name" : "lados-image",
         "uri" : "puente_papelera/lados.jpg"
      },
      {
         "mimeType" : "image/jpeg",
         "name" : "cubo-image",
         "uri" : "puente_papelera/cubo.jpg"
      },
      {
         "mimeType" : "image/png",
         "name" : "BARANDA-image",
         "uri" : "puente_papelera/BARANDA.png"
      },
      {
         "mimeType" : "image/png",
         "name" : "BARANDA1_-image",
         "uri" : "puente_papelera/BARANDA1_.png"
      },
      {
         "mimeType" : "image/jpeg",
         "name" : "_2-image",
         "uri" : "puente_papelera/_2.jpg"
      },
      {
         "mimeType" : "image/jpeg",
         "name" : "_1-image",
         "uri" : "puente_papelera/_1.jpg"
      },
      {
         "mimeType" : "image/jpeg",
         "name" : "_1_1_-image",
         "uri" : "puente_papelera/_1_1_.jpg"
      },
      {
         "mimeType" : "image/jpeg",
         "name" : "_1_2_-image",
         "uri" : "puente_papelera/_1_2_.jpg"
      },
      {
         "mimeType" : "image/jpeg",
         "name" : "_1_3_-image",
         "uri" : "puente_papelera/_1_3_.jpg"
      }
   ],
   "materials" : [
      {
         "alphaMode" : "OPAQUE",
         "doubleSided" : true,
         "name" : "lados",
         "pbrMetallicRoughness" : {
            "baseColorFactor" : [ 0.952941, 0.941176, 0.968627, 1 ],
            "baseColorTexture" : {
               "index" : 0,
               "texCoord" : 0
            },
            "metallicFactor" : 0,
            "roughnessFactor" : 0.9699476628648295
         }
      },
      {
         "alphaMode" : "OPAQUE",
         "doubleSided" : true,
         "name" : "cubo",
         "pbrMetallicRoughness" : {
            "baseColorFactor" : [ 0.866667, 0.870588, 0.890196, 1 ],
            "baseColorTexture" : {
               "index" : 1,
               "texCoord" : 0
            },
            "metallicFactor" : 0,
            "roughnessFactor" : 0.9699476628648295
         }
      },
      {
         "alphaMode" : "OPAQUE",
         "doubleSided" : true,
         "name" : "BARANDA",
         "pbrMetallicRoughness" : {
            "baseColorFactor" : [ 1, 1, 1, 1 ],
            "baseColorTexture" : {
               "index" : 2,
               "texCoord" : 0
            },
            "metallicFactor" : 0,
            "roughnessFactor" : 0.9699476628648295
         }
      },
      {
         "alphaMode" : "OPAQUE",
         "doubleSided" : true,
         "name" : "BARANDA1_",
         "pbrMetallicRoughness" : {
            "baseColorFactor" : [ 1, 1, 1, 1 ],
            "baseColorTexture" : {
               "index" : 3,
               "texCoord" : 0
            },
            "metallicFactor" : 0,
            "roughnessFactor" : 0.9699476628648295
         }
      },
      {
         "alphaMode" : "OPAQUE",
         "doubleSided" : true,
         "name" : "_2",
         "pbrMetallicRoughness" : {
            "baseColorFactor" : [ 0.517647, 0.5333329999999999, 0.501961, 1 ],
            "baseColorTexture" : {
               "index" : 4,
               "texCoord" : 0
            },
            "metallicFactor" : 0,
            "roughnessFactor" : 0.9699476628648295
         }
      },
      {
         "alphaMode" : "OPAQUE",
         "doubleSided" : true,
         "name" : "_1",
         "pbrMetallicRoughness" : {
            "baseColorFactor" : [ 0.709804, 0.709804, 0.709804, 1 ],
            "baseColorTexture" : {
               "index" : 5,
               "texCoord" : 0
            },
            "metallicFactor" : 0,
            "roughnessFactor" : 0.9699476628648295
         }
      },
      {
         "alphaMode" : "OPAQUE",
         "doubleSided" : true,
         "name" : "_1_1_",
         "pbrMetallicRoughness" : {
            "baseColorFactor" : [ 0.709804, 0.709804, 0.709804, 1 ],
            "baseColorTexture" : {
               "index" : 6,
               "texCoord" : 0
            },
            "metallicFactor" : 0,
            "roughnessFactor" : 0.9699476628648295
         }
      },
      {
         "alphaMode" : "OPAQUE",
         "doubleSided" : true,
         "name" : "FrontColor",
         "pbrMetallicRoughness" : {
            "baseColorFactor" : [ 0.890196, 0.8823530000000001, 0.870588, 1 ],
            "metallicFactor" : 0,
            "roughnessFactor" : 0.9699476628648295
         }
      },
      {
         "alphaMode" : "OPAQUE",
         "doubleSided" : true,
         "name" : "_1_2_",
         "pbrMetallicRoughness" : {
            "baseColorFactor" : [ 0.709804, 0.709804, 0.709804, 1 ],
            "baseColorTexture" : {
               "index" : 7,
               "texCoord" : 0
            },
            "metallicFactor" : 0,
            "roughnessFactor" : 0.9699476628648295
         }
      },
      {
         "alphaMode" : "OPAQUE",
         "doubleSided" : true,
         "name" : "_1_3_",
         "pbrMetallicRoughness" : {
            "baseColorFactor" : [ 0.709804, 0.709804, 0.709804, 1 ],
            "baseColorTexture" : {
               "index" : 8,
               "texCoord" : 0
            },
            "metallicFactor" : 0,
            "roughnessFactor" : 0.9699476628648295
         }
      }
   ],
   "meshes" : [
      {
         "name" : "buffer-0-mesh-0",
         "primitives" : [
            {
               "attributes" : {
                  "NORMAL" : 2,
                  "POSITION" : 1,
                  "TEXCOORD_0" : 3
               },
               "indices" : 0,
               "material" : 0,
               "mode" : 4
            },
            {
               "attributes" : {
                  "NORMAL" : 6,
                  "POSITION" : 5,
                  "TEXCOORD_0" : 7
               },
               "indices" : 4,
               "material" : 1,
               "mode" : 4
            },
            {
               "attributes" : {
                  "NORMAL" : 10,
                  "POSITION" : 9,
                  "TEXCOORD_0" : 11
               },
               "indices" : 8,
               "material" : 2,
               "mode" : 4
            },
            {
               "attributes" : {
                  "NORMAL" : 14,
                  "POSITION" : 13,
                  "TEXCOORD_0" : 15
               },
               "indices" : 12,
               "material" : 3,
               "mode" : 4
            },
            {
               "attributes" : {
                  "NORMAL" : 18,
                  "POSITION" : 17,
                  "TEXCOORD_0" : 19
               },
               "indices" : 16,
               "material" : 4,
               "mode" : 4
            },
            {
               "attributes" : {
                  "NORMAL" : 22,
                  "POSITION" : 21,
                  "TEXCOORD_0" : 23
               },
               "indices" : 20,
               "material" : 5,
               "mode" : 4
            },
            {
               "attributes" : {
                  "NORMAL" : 26,
                  "POSITION" : 25,
                  "TEXCOORD_0" : 27
               },
               "indices" : 24,
               "material" : 6,
               "mode" : 4
            },
            {
               "attributes" : {
                  "NORMAL" : 30,
                  "POSITION" : 29,
                  "TEXCOORD_0" : 31
               },
               "indices" : 28,
               "material" : 7,
               "mode" : 4
            },
            {
               "attributes" : {
                  "NORMAL" : 34,
                  "POSITION" : 33,
                  "TEXCOORD_0" : 35
               },
               "indices" : 32,
               "material" : 8,
               "mode" : 4
            },
            {
               "attributes" : {
                  "NORMAL" : 38,
                  "POSITION" : 37,
                  "TEXCOORD_0" : 39
               },
               "indices" : 36,
               "material" : 9,
               "mode" : 4
            }
         ]
      }
   ],
   "nodes" : [
      {
         "mesh" : 0,
         "name" : "node-0"
      }
   ],
   "samplers" : [
      {
         "name" : "lados-sampler",
         "wrapS" : 10497,
         "wrapT" : 10497
      },
      {
         "name" : "cubo-sampler",
         "wrapS" : 10497,
         "wrapT" : 10497
      },
      {
         "name" : "BARANDA-sampler",
         "wrapS" : 10497,
         "wrapT" : 10497
      },
      {
         "name" : "BARANDA1_-sampler",
         "wrapS" : 10497,
         "wrapT" : 10497
      },
      {
         "name" : "_2-sampler",
         "wrapS" : 10497,
         "wrapT" : 10497
      },
      {
         "name" : "_1-sampler",
         "wrapS" : 10497,
         "wrapT" : 10497
      },
      {
         "name" : "_1_1_-sampler",
         "wrapS" : 10497,
         "wrapT" : 10497
      },
      {
         "name" : "_1_2_-sampler",
         "wrapS" : 10497,
         "wrapT" : 10497
      },
      {
         "name" : "_1_3_-sampler",
         "wrapS" : 10497,
         "wrapT" : 10497
      }
   ],
   "scenes" : [
      {
         "name" : "scene-0",
         "nodes" : [ 0 ]
      }
   ],
   "textures" : [
      {
         "name" : "lados-texture",
         "sampler" : 0,
         "source" : 0
      },
      {
         "name" : "cubo-texture",
         "sampler" : 1,
         "source" : 1
      },
      {
         "name" : "BARANDA-texture",
         "sampler" : 2,
         "source" : 2
      },
      {
         "name" : "BARANDA1_-texture",
         "sampler" : 3,
         "source" : 3
      },
      {
         "name" : "_2-texture",
         "sampler" : 4,
         "source" : 4
      },
      {
         "name" : "_1-texture",
         "sampler" : 5,
         "source" : 5
      },
      {
         "name" : "_1_1_-texture",
         "sampler" : 6,
         "source" : 6
      },
      {
         "name" : "_1_2_-texture",
         "sampler" : 7,
         "source" : 7
      },
      {
         "name" : "_1_3_-texture",
         "sampler" : 8,
         "source" : 8
      }
   ]
}
