{
  "accessors": [
    {
      "bufferView": 2,
      "componentType": 5126,
      "count": 65532,
      "max": [
        1,
        1,
        0.2786099910736084
      ],
      "min": [
        -1,
        -1,
        0
      ],
      "type": "VEC3"
    },
    {
      "bufferView": 2,
      "byteOffset": 786384,
      "componentType": 5126,
      "count": 65532,
      "max": [
        0.87628823518753052,
        0.90378761291503906,
        1
      ],
      "min": [
        -0.85858583450317383,
        -0.85516273975372314,
        0.40920546650886536
      ],
      "type": "VEC3"
    },
    {
      "bufferView": 3,
      "componentType": 5126,
      "count": 65532,
      "max": [
        1,
        0.27290445566177368,
        0.86546206474304199,
        1
      ],
      "min": [
        0.45009174942970276,
        -0.24196441471576691,
        -0.89294999837875366,
        1
      ],
      "type": "VEC4"
    },
    {
      "bufferView": 1,
      "componentType": 5126,
      "count": 65532,
      "max": [
        0.99067002534866333,
        0.99067002534866333
      ],
      "min": [
        0.0093299997970461845,
        0.0093299997970461845
      ],
      "type": "VEC2"
    },
    {
      "bufferView": 1,
      "byteOffset": 524256,
      "componentType": 5126,
      "count": 65532,
      "max": [
        0.99067002534866333,
        0.99067002534866333
      ],
      "min": [
        0.0093299997970461845,
        0.0093299997970461845
      ],
      "type": "VEC2"
    },
    {
      "bufferView": 0,
      "componentType": 5125,
      "count": 390099,
      "max": [
        65531
      ],
      "min": [
        0
      ],
      "type": "SCALAR"
    },
    {
      "bufferView": 2,
      "byteOffset": 1572768,
      "componentType": 5126,
      "count": 657,
      "max": [
        0.03125,
        1,
        0.25529000163078308
      ],
      "min": [
        -1,
        0.96875,
        0.095289997756481171
      ],
      "type": "VEC3"
    },
    {
      "bufferView": 2,
      "byteOffset": 1580652,
      "componentType": 5126,
      "count": 657,
      "max": [
        0.67884600162506104,
        0.75760543346405029,
        0.99933701753616333
      ],
      "min": [
        -0.74147796630859375,
        -0.5447005033493042,
        0.59444189071655273
      ],
      "type": "VEC3"
    },
    {
      "bufferView": 3,
      "byteOffset": 1048512,
      "componentType": 5126,
      "count": 657,
      "max": [
        0.99999701976776123,
        0.07986217737197876,
        0.74370360374450684,
        1
      ],
      "min": [
        0.66850864887237549,
        -0.077424071729183197,
        -0.71004712581634521,
        1
      ],
      "type": "VEC4"
    },
    {
      "bufferView": 1,
      "byteOffset": 1048512,
      "componentType": 5126,
      "count": 657,
      "max": [
        0.51533001661300659,
        0.99067002534866333
      ],
      "min": [
        0.0093299997970461845,
        0.97534000873565674
      ],
      "type": "VEC2"
    },
    {
      "bufferView": 1,
      "byteOffset": 1053768,
      "componentType": 5126,
      "count": 657,
      "max": [
        0.51533001661300659,
        0.99067002534866333
      ],
      "min": [
        0.0093299997970461845,
        0.97534000873565674
      ],
      "type": "VEC2"
    },
    {
      "bufferView": 0,
      "byteOffset": 1560396,
      "componentType": 5125,
      "count": 3117,
      "max": [
        656
      ],
      "min": [
        0
      ],
      "type": "SCALAR"
    },
    {
      "bufferView": 2,
      "byteOffset": 1588536,
      "componentType": 5126,
      "count": 4,
      "max": [
        0.96228998899459839,
        0.96228998899459839,
        0
      ],
      "min": [
        -0.96228998899459839,
        -0.96228998899459839,
        0
      ],
      "type": "VEC3"
    },
    {
      "bufferView": 2,
      "byteOffset": 1588584,
      "componentType": 5126,
      "count": 4,
      "max": [
        0,
        0,
        1
      ],
      "min": [
        0,
        0,
        1
      ],
      "type": "VEC3"
    },
    {
      "bufferView": 3,
      "byteOffset": 1059024,
      "componentType": 5126,
      "count": 4,
      "max": [
        1,
        0,
        0,
        1
      ],
      "min": [
        1,
        0,
        0,
        1
      ],
      "type": "VEC4"
    },
    {
      "bufferView": 1,
      "byteOffset": 1059024,
      "componentType": 5126,
      "count": 4,
      "max": [
        1,
        1
      ],
      "min": [
        0,
        0
      ],
      "type": "VEC2"
    },
    {
      "bufferView": 0,
      "byteOffset": 1572864,
      "componentType": 5125,
      "count": 6,
      "max": [
        3
      ],
      "min": [
        0
      ],
      "type": "SCALAR"
    },
    {
      "bufferView": 2,
      "byteOffset": 1588632,
      "componentType": 5126,
      "count": 2656,
      "max": [
        1,
        1,
        0.25903999805450439
      ],
      "min": [
        -1,
        -1,
        -0.00031999999191612005
      ],
      "type": "VEC3"
    },
    {
      "bufferView": 2,
      "byteOffset": 1620504,
      "componentType": 5126,
      "count": 2656,
      "max": [
        1,
        1,
        0
      ],
      "min": [
        -1,
        -1,
        -1
      ],
      "type": "VEC3"
    },
    {
      "bufferView": 3,
      "byteOffset": 1059088,
      "componentType": 5126,
      "count": 2656,
      "max": [
        0,
        0.12490560859441757,
        1,
        1
      ],
      "min": [
        -1,
        -0.14371427893638611,
        -1,
        1
      ],
      "type": "VEC4"
    },
    {
      "bufferView": 1,
      "byteOffset": 1059056,
      "componentType": 5126,
      "count": 2656,
      "max": [
        0.97795999050140381,
        0.99989998340606689
      ],
      "min": [
        9.9999997473787516e-05,
        9.9999997473787516e-05
      ],
      "type": "VEC2"
    },
    {
      "bufferView": 0,
      "byteOffset": 1572888,
      "componentType": 5125,
      "count": 7938,
      "max": [
        2655
      ],
      "min": [
        0
      ],
      "type": "SCALAR"
    }
  ],
  "asset": {
    "extras": {
      "author": "mhart (https://sketchfab.com/mhart)",
      "license": "CC-BY-4.0 (http://creativecommons.org/licenses/by/4.0/)",
      "source": "https://sketchfab.com/models/ab5e1ef15ed54b359013e90a95e58714",
      "title": "Landscape"
    },
    "generator": "Sketchfab-3.20.7",
    "version": "2.0"
  },
  "bufferViews": [
    {
      "buffer": 0,
      "byteLength": 1604640,
      "byteOffset": 0,
      "name": "floatBufferViews",
      "target": 34963
    },
    {
      "buffer": 0,
      "byteLength": 1080304,
      "byteOffset": 1604640,
      "byteStride": 8,
      "name": "floatBufferViews",
      "target": 34962
    },
    {
      "buffer": 0,
      "byteLength": 1652376,
      "byteOffset": 2684944,
      "byteStride": 12,
      "name": "floatBufferViews",
      "target": 34962
    },
    {
      "buffer": 0,
      "byteLength": 1101584,
      "byteOffset": 4337320,
      "byteStride": 16,
      "name": "floatBufferViews",
      "target": 34962
    }
  ],
  "buffers": [
    {
      "byteLength": 5438904,
      "uri": "scene.bin"
    }
  ],
  "images": [
    {
      "uri": "textures/border_baseColor.jpeg"
    },
    {
      "uri": "textures/water_baseColor.jpeg"
    },
    {
      "uri": "textures/water_normal.png"
    },
    {
      "uri": "textures/landscape_normal.png"
    },
    {
      "uri": "textures/landscape_baseColor.png"
    }
  ],
  "materials": [
    {
      "doubleSided": true,
      "emissiveFactor": [
        0,
        0,
        0
      ],
      "name": "border",
      "pbrMetallicRoughness": {
        "baseColorFactor": [
          1,
          1,
          1,
          1
        ],
        "baseColorTexture": {
          "index": 0,
          "texCoord": 0
        },
        "metallicFactor": 0,
        "roughnessFactor": 1
      }
    },
    {
      "alphaMode": "BLEND",
      "doubleSided": true,
      "name": "water",
      "normalTexture": {
        "index": 2,
        "scale": 1,
        "texCoord": 0
      },
      "pbrMetallicRoughness": {
        "baseColorFactor": [
          1,
          1,
          1,
          0.050000000000000003
        ],
        "baseColorTexture": {
          "index": 1,
          "texCoord": 0
        },
        "metallicFactor": 0.48999999999999999,
        "roughnessFactor": 0.12
      }
    },
    {
      "doubleSided": true,
      "emissiveFactor": [
        0,
        0,
        0
      ],
      "name": "landscape",
      "normalTexture": {
        "index": 3,
        "scale": 1,
        "texCoord": 1
      },
      "pbrMetallicRoughness": {
        "baseColorFactor": [
          1,
          1,
          1,
          1
        ],
        "baseColorTexture": {
          "index": 4,
          "texCoord": 0
        },
        "metallicFactor": 0,
        "roughnessFactor": 1
      }
    }
  ],
  "meshes": [
    {
      "name": "landscape_0",
      "primitives": [
        {
          "attributes": {
            "NORMAL": 1,
            "POSITION": 0,
            "TANGENT": 2,
            "TEXCOORD_0": 3,
            "TEXCOORD_1": 4
          },
          "indices": 5,
          "material": 2,
          "mode": 4
        }
      ]
    },
    {
      "name": "landscape_0",
      "primitives": [
        {
          "attributes": {
            "NORMAL": 7,
            "POSITION": 6,
            "TANGENT": 8,
            "TEXCOORD_0": 9,
            "TEXCOORD_1": 10
          },
          "indices": 11,
          "material": 2,
          "mode": 4
        }
      ]
    },
    {
      "name": "water_0",
      "primitives": [
        {
          "attributes": {
            "NORMAL": 13,
            "POSITION": 12,
            "TANGENT": 14,
            "TEXCOORD_0": 15
          },
          "indices": 16,
          "material": 1,
          "mode": 4
        }
      ]
    },
    {
      "name": "border_0",
      "primitives": [
        {
          "attributes": {
            "NORMAL": 18,
            "POSITION": 17,
            "TANGENT": 19,
            "TEXCOORD_0": 20
          },
          "indices": 21,
          "material": 0,
          "mode": 4
        }
      ]
    }
  ],
  "nodes": [
    {
      "children": [
        1
      ],
      "name": "RootNode (gltf orientation matrix)",
      "rotation": [
        -0.70710678118654746,
        -0,
        -0,
        0.70710678118654757
      ]
    },
    {
      "children": [
        2
      ],
      "name": "RootNode (model correction matrix)"
    },
    {
      "children": [
        3,
        5,
        8,
        10
      ],
      "name": "Root"
    },
    {
      "children": [
        4
      ],
      "matrix": [
        1,
        0,
        0,
        0,
        0,
        1,
        0,
        0,
        0,
        0,
        1,
        0,
        0,
        6.9171899999999997,
        0,
        1
      ],
      "name": "Hemi"
    },
    {
      "name": "Hemi"
    },
    {
      "children": [
        6,
        7
      ],
      "name": "landscape"
    },
    {
      "mesh": 0,
      "name": "landscape_0"
    },
    {
      "mesh": 1,
      "name": "landscape_0"
    },
    {
      "children": [
        9
      ],
      "matrix": [
        1,
        0,
        0,
        0,
        0,
        1,
        0,
        0,
        0,
        0,
        1,
        0,
        0,
        0,
        0.023950000000000009,
        1
      ],
      "name": "water"
    },
    {
      "mesh": 2,
      "name": "water_0"
    },
    {
      "children": [
        11
      ],
      "name": "border"
    },
    {
      "mesh": 3,
      "name": "border_0"
    }
  ],
  "samplers": [
    {
      "magFilter": 9729,
      "minFilter": 9987,
      "wrapS": 10497,
      "wrapT": 10497
    }
  ],
  "scene": 0,
  "scenes": [
    {
      "name": "OSG_Scene",
      "nodes": [
        0
      ]
    }
  ],
  "textures": [
    {
      "sampler": 0,
      "source": 0
    },
    {
      "sampler": 0,
      "source": 1
    },
    {
      "sampler": 0,
      "source": 2
    },
    {
      "sampler": 0,
      "source": 3
    },
    {
      "sampler": 0,
      "source": 4
    }
  ]
}

