{
  "accessors": [
    {
      "bufferView": 2,
      "componentType": 5126,
      "count": 82,
      "max": [
        3.4363484382629395,
        0.5,
        3.168757438659668
      ],
      "min": [
        -3.5658211708068848,
        -1.8347287178039551,
        -3.2998285293579102
      ],
      "type": "VEC3"
    },
    {
      "bufferView": 2,
      "byteOffset": 984,
      "componentType": 5126,
      "count": 82,
      "max": [
        1,
        1,
        1
      ],
      "min": [
        -1,
        -1,
        -1
      ],
      "type": "VEC3"
    },
    {
      "bufferView": 3,
      "componentType": 5126,
      "count": 82,
      "max": [
        1,
        0.33056271076202393,
        1,
        1
      ],
      "min": [
        -0.29461893439292908,
        -0.3406059741973877,
        -1,
        -1
      ],
      "type": "VEC4"
    },
    {
      "bufferView": 1,
      "componentType": 5126,
      "count": 82,
      "max": [
        1,
        1
      ],
      "min": [
        0,
        0
      ],
      "type": "VEC2"
    },
    {
      "bufferView": 0,
      "componentType": 5125,
      "count": 192,
      "max": [
        81
      ],
      "min": [
        0
      ],
      "type": "SCALAR"
    },
    {
      "bufferView": 2,
      "byteOffset": 1968,
      "componentType": 5126,
      "count": 82,
      "max": [
        3.4363484382629395,
        0.50000095367431641,
        3.168757438659668
      ],
      "min": [
        -3.5658211708068848,
        -1.834728479385376,
        -3.2998290061950684
      ],
      "type": "VEC3"
    },
    {
      "bufferView": 2,
      "byteOffset": 2952,
      "componentType": 5126,
      "count": 82,
      "max": [
        1,
        1,
        1
      ],
      "min": [
        -1,
        -1,
        -1
      ],
      "type": "VEC3"
    },
    {
      "bufferView": 3,
      "byteOffset": 1312,
      "componentType": 5126,
      "count": 82,
      "max": [
        1,
        0.33056274056434631,
        1,
        1
      ],
      "min": [
        -0.29461893439292908,
        -0.34060555696487427,
        -1,
        -1
      ],
      "type": "VEC4"
    },
    {
      "bufferView": 1,
      "byteOffset": 656,
      "componentType": 5126,
      "count": 82,
      "max": [
        0.9999997615814209,
        1
      ],
      "min": [
        -0.067479565739631653,
        -0.005499416496604681
      ],
      "type": "VEC2"
    },
    {
      "bufferView": 0,
      "byteOffset": 768,
      "componentType": 5125,
      "count": 192,
      "max": [
        81
      ],
      "min": [
        0
      ],
      "type": "SCALAR"
    },
    {
      "bufferView": 2,
      "byteOffset": 3936,
      "componentType": 5126,
      "count": 84,
      "max": [
        3.4363484382629395,
        0.5,
        3.168757438659668
      ],
      "min": [
        -3.5658211708068848,
        -1.8347287178039551,
        -3.299828052520752
      ],
      "type": "VEC3"
    },
    {
      "bufferView": 2,
      "byteOffset": 4944,
      "componentType": 5126,
      "count": 84,
      "max": [
        1,
        1,
        1
      ],
      "min": [
        -1,
        -1,
        -1
      ],
      "type": "VEC3"
    },
    {
      "bufferView": 3,
      "byteOffset": 2624,
      "componentType": 5126,
      "count": 84,
      "max": [
        1,
        0.3305642306804657,
        1,
        1
      ],
      "min": [
        -0.29461920261383057,
        -0.34060528874397278,
        -1,
        -1
      ],
      "type": "VEC4"
    },
    {
      "bufferView": 1,
      "byteOffset": 1312,
      "componentType": 5126,
      "count": 84,
      "max": [
        1.0800273418426514,
        1
      ],
      "min": [
        -2.9802322387695312e-08,
        -0.16402186453342438
      ],
      "type": "VEC2"
    },
    {
      "bufferView": 0,
      "byteOffset": 1536,
      "componentType": 5125,
      "count": 192,
      "max": [
        83
      ],
      "min": [
        0
      ],
      "type": "SCALAR"
    },
    {
      "bufferView": 2,
      "byteOffset": 5952,
      "componentType": 5126,
      "count": 82,
      "max": [
        3.4363479614257812,
        0.5000002384185791,
        3.1687545776367188
      ],
      "min": [
        -3.5658211708068848,
        -1.8347287178039551,
        -3.299830436706543
      ],
      "type": "VEC3"
    },
    {
      "bufferView": 2,
      "byteOffset": 6936,
      "componentType": 5126,
      "count": 82,
      "max": [
        1,
        1,
        1
      ],
      "min": [
        -1,
        -1,
        -1
      ],
      "type": "VEC3"
    },
    {
      "bufferView": 3,
      "byteOffset": 3968,
      "componentType": 5126,
      "count": 82,
      "max": [
        1,
        0.33056405186653137,
        1,
        1
      ],
      "min": [
        -0.29461899399757385,
        -0.34060585498809814,
        -1,
        -1
      ],
      "type": "VEC4"
    },
    {
      "bufferView": 1,
      "byteOffset": 1984,
      "componentType": 5126,
      "count": 82,
      "max": [
        1.0362881422042847,
        1.1448858976364136
      ],
      "min": [
        0,
        0
      ],
      "type": "VEC2"
    },
    {
      "bufferView": 0,
      "byteOffset": 2304,
      "componentType": 5125,
      "count": 192,
      "max": [
        81
      ],
      "min": [
        0
      ],
      "type": "SCALAR"
    }
  ],
  "asset": {
    "extras": {
      "author": "ryemartin (https://sketchfab.com/ryemartin)",
      "license": "CC-BY-4.0 (http://creativecommons.org/licenses/by/4.0/)",
      "source": "https://sketchfab.com/models/9850d6cd9f414bd1b29863e60774f174",
      "title": "Floating Rock Stairs"
    },
    "generator": "Sketchfab-3.18.7",
    "version": "2.0"
  },
  "bufferViews": [
    {
      "buffer": 0,
      "byteLength": 3072,
      "byteOffset": 0,
      "name": "floatBufferViews",
      "target": 34963
    },
    {
      "buffer": 0,
      "byteLength": 2640,
      "byteOffset": 3072,
      "byteStride": 8,
      "name": "floatBufferViews",
      "target": 34962
    },
    {
      "buffer": 0,
      "byteLength": 7920,
      "byteOffset": 5712,
      "byteStride": 12,
      "name": "floatBufferViews",
      "target": 34962
    },
    {
      "buffer": 0,
      "byteLength": 5280,
      "byteOffset": 13632,
      "byteStride": 16,
      "name": "floatBufferViews",
      "target": 34962
    }
  ],
  "buffers": [
    {
      "byteLength": 18912,
      "uri": "scene.bin"
    }
  ],
  "images": [
    {
      "uri": "textures/rockSG_baseColor.png"
    }
  ],
  "materials": [
    {
      "doubleSided": true,
      "emissiveFactor": [
        0,
        0,
        0
      ],
      "name": "rockSG",
      "pbrMetallicRoughness": {
        "baseColorFactor": [
          1,
          1,
          1,
          1
        ],
        "baseColorTexture": {
          "index": 0,
          "texCoord": 0
        },
        "metallicFactor": 0,
        "roughnessFactor": 0.59999999999999998
      }
    }
  ],
  "meshes": [
    {
      "name": "pCube2_rockSG_0",
      "primitives": [
        {
          "attributes": {
            "NORMAL": 1,
            "POSITION": 0,
            "TANGENT": 2,
            "TEXCOORD_0": 3
          },
          "indices": 4,
          "material": 0,
          "mode": 4
        }
      ]
    },
    {
      "name": "pasted__pCube2_rockSG_0",
      "primitives": [
        {
          "attributes": {
            "NORMAL": 6,
            "POSITION": 5,
            "TANGENT": 7,
            "TEXCOORD_0": 8
          },
          "indices": 9,
          "material": 0,
          "mode": 4
        }
      ]
    },
    {
      "name": "pasted__pasted__pCube2_rockSG_0",
      "primitives": [
        {
          "attributes": {
            "NORMAL": 11,
            "POSITION": 10,
            "TANGENT": 12,
            "TEXCOORD_0": 13
          },
          "indices": 14,
          "material": 0,
          "mode": 4
        }
      ]
    },
    {
      "name": "pasted__pasted__pasted__pCube2_rockSG_0",
      "primitives": [
        {
          "attributes": {
            "NORMAL": 16,
            "POSITION": 15,
            "TANGENT": 17,
            "TEXCOORD_0": 18
          },
          "indices": 19,
          "material": 0,
          "mode": 4
        }
      ]
    }
  ],
  "nodes": [
    {
      "children": [
        1
      ],
      "name": "RootNode (gltf orientation matrix)",
      "rotation": [
        -0.70710678118654746,
        -0,
        -0,
        0.70710678118654757
      ]
    },
    {
      "children": [
        2
      ],
      "name": "RootNode (model correction matrix)"
    },
    {
      "children": [
        3
      ],
      "matrix": [
        1,
        0,
        0,
        0,
        0,
        0,
        1,
        0,
        0,
        -1,
        0,
        0,
        0,
        0,
        0,
        1
      ],
      "name": "224dca32274b41359874bd13eb21d0a3.fbx"
    },
    {
      "children": [
        4,
        6,
        9,
        13
      ],
      "name": "RootNode"
    },
    {
      "children": [
        5
      ],
      "matrix": [
        1,
        0,
        0,
        0,
        0,
        1,
        0,
        0,
        0,
        0,
        1,
        0,
        0,
        6.466616153717041,
        -8.2379636764526367,
        1
      ],
      "name": "pCube2"
    },
    {
      "mesh": 0,
      "name": "pCube2_rockSG_0"
    },
    {
      "children": [
        7
      ],
      "matrix": [
        0.82960391044616699,
        0,
        0,
        0,
        0,
        0.82960391044616699,
        0,
        0,
        0,
        0,
        0.82960391044616699,
        0,
        -0.011030822992324829,
        -0.55663615465164185,
        5.6256184577941895,
        1
      ],
      "name": "group"
    },
    {
      "children": [
        8
      ],
      "matrix": [
        1,
        0,
        0,
        0,
        0,
        1,
        0,
        0,
        0,
        0,
        1,
        0,
        0,
        6.466616153717041,
        -9.1993236541748047,
        1
      ],
      "name": "pasted__pCube2"
    },
    {
      "mesh": 1,
      "name": "pasted__pCube2_rockSG_0"
    },
    {
      "children": [
        10
      ],
      "matrix": [
        0.86037063598632812,
        0,
        0,
        0,
        0,
        0.86037063598632812,
        0,
        0,
        0,
        0,
        0.86037063598632812,
        0,
        -0.0090390965342521667,
        -1.0097863674163818,
        6.1474995613098145,
        1
      ],
      "name": "group1"
    },
    {
      "children": [
        11
      ],
      "matrix": [
        0.82960391044616699,
        0,
        0,
        0,
        0,
        0.82960391044616699,
        0,
        0,
        0,
        0,
        0.82960391044616699,
        0,
        -0.011030822992324829,
        -0.55663615465164185,
        5.6256184577941895,
        1
      ],
      "name": "pasted__group"
    },
    {
      "children": [
        12
      ],
      "matrix": [
        1,
        0,
        0,
        0,
        0,
        1,
        0,
        0,
        0,
        0,
        1,
        0,
        -1.7347234759768071e-17,
        6.466616153717041,
        -10.487493515014648,
        1
      ],
      "name": "pasted__pasted__pCube2"
    },
    {
      "mesh": 2,
      "name": "pasted__pasted__pCube2_rockSG_0"
    },
    {
      "children": [
        14
      ],
      "matrix": [
        1,
        0,
        0,
        0,
        0,
        1,
        0,
        0,
        0,
        0,
        1,
        0,
        0,
        -1.742824912071228,
        5.2119288444519043,
        1
      ],
      "name": "group2"
    },
    {
      "children": [
        15
      ],
      "matrix": [
        0.86037063598632812,
        0,
        0,
        0,
        0,
        0.86037063598632812,
        0,
        0,
        0,
        0,
        0.86037063598632812,
        0,
        -0.0090390965342521667,
        -1.0097863674163818,
        6.1474995613098145,
        1
      ],
      "name": "pasted__group1"
    },
    {
      "children": [
        16
      ],
      "matrix": [
        0.82960391044616699,
        0,
        0,
        0,
        0,
        0.82960391044616699,
        0,
        0,
        0,
        0,
        0.82960391044616699,
        0,
        -0.011030822992324829,
        -0.55663615465164185,
        5.6256184577941895,
        1
      ],
      "name": "pasted__pasted__group"
    },
    {
      "children": [
        17
      ],
      "matrix": [
        0.78327608108520508,
        0,
        0,
        0,
        0,
        0.78327608108520508,
        0,
        0,
        0,
        0,
        0.78327608108520508,
        0,
        -1.7347234759768071e-17,
        6.466616153717041,
        -10.487493515014648,
        1
      ],
      "name": "pasted__pasted__pasted__pCube2"
    },
    {
      "mesh": 3,
      "name": "pasted__pasted__pasted__pCube2_rockSG_0"
    }
  ],
  "samplers": [
    {
      "magFilter": 9729,
      "minFilter": 9987,
      "wrapS": 10497,
      "wrapT": 10497
    }
  ],
  "scene": 0,
  "scenes": [
    {
      "name": "OSG_Scene",
      "nodes": [
        0
      ]
    }
  ],
  "textures": [
    {
      "sampler": 0,
      "source": 0
    }
  ]
}

